# Blender 4.0.2
# www.blender.org
mtllib Flask.mtl
o Sphere
v 0.197052 0.873630 -0.197052
v 0.672499 0.309017 -0.672499
v 0.672499 -0.309017 -0.672499
v 0.197647 -0.853688 -0.197647
v 0.278674 0.873630 -0.000000
v 0.951057 0.309017 0.000000
v 0.951057 -0.309017 0.000000
v 0.279516 -0.853688 -0.000000
v 0.197052 0.873630 0.197052
v 0.672499 0.309017 0.672499
v 0.672499 -0.309017 0.672499
v 0.197647 -0.853688 0.197647
v 0.000000 0.873630 0.278674
v 0.000000 0.309017 0.951057
v 0.000000 -0.309017 0.951057
v 0.000000 -0.853688 0.279516
v -0.197052 0.873630 0.197052
v -0.672499 0.309017 0.672499
v -0.672499 -0.309017 0.672499
v -0.197647 -0.853688 0.197647
v -0.278674 0.873630 0.000000
v -0.951057 0.309017 0.000000
v -0.951057 -0.309017 0.000000
v -0.279516 -0.853688 0.000000
v -0.197052 0.873630 -0.197052
v -0.672499 0.309017 -0.672499
v -0.672499 -0.309017 -0.672499
v -0.197647 -0.853688 -0.197647
v 0.000000 0.873630 -0.278674
v 0.000000 0.309017 -0.951057
v 0.000000 -0.309017 -0.951057
v 0.000000 -0.853688 -0.279516
v 0.587785 0.809017 0.000000
v 0.415627 0.809017 -0.415627
v 0.415627 0.809017 0.415627
v 0.000000 0.809017 0.587785
v -0.415627 0.809017 0.415627
v -0.587785 0.809017 0.000000
v -0.415627 0.809017 -0.415627
v 0.000000 0.809017 -0.587785
v 0.278674 1.602260 -0.000000
v 0.197052 1.602260 -0.197052
v 0.197052 1.602260 0.197052
v 0.000000 1.602260 0.278674
v -0.197052 1.602260 0.197052
v -0.278674 1.602260 0.000000
v -0.197052 1.602260 -0.197052
v 0.000000 1.602260 -0.278674
v 0.278674 1.710303 -0.000000
v 0.197052 1.710303 -0.197052
v 0.197052 1.710303 0.197052
v -0.000000 1.710303 0.278674
v -0.197052 1.710303 0.197052
v -0.278674 1.710303 0.000000
v -0.197052 1.710303 -0.197052
v -0.000000 1.710303 -0.278674
v 0.429749 1.602260 -0.000000
v 0.303879 1.602260 -0.303879
v 0.303879 1.602260 0.303879
v 0.000000 1.602260 0.429749
v -0.303879 1.602260 0.303879
v -0.429749 1.602260 0.000000
v -0.303879 1.602260 -0.303879
v 0.000000 1.602260 -0.429749
v 0.429749 1.710303 -0.000000
v 0.303879 1.710303 -0.303879
v 0.303879 1.710303 0.303879
v -0.000000 1.710303 0.429749
v -0.303879 1.710303 0.303879
v -0.429749 1.710303 0.000000
v -0.303879 1.710303 -0.303879
v -0.000000 1.710303 -0.429749
v 0.278674 1.677273 -0.000000
v 0.197052 1.677273 -0.197052
v 0.197052 1.677273 0.197052
v -0.000000 1.677273 0.278674
v -0.197052 1.677273 0.197052
v -0.278674 1.677273 0.000000
v -0.197052 1.677273 -0.197052
v -0.000000 1.677273 -0.278674
v 0.415627 -0.809017 -0.415627
v 0.587785 -0.809017 0.000000
v 0.415627 -0.809017 0.415627
v 0.000000 -0.809017 0.587785
v -0.415627 -0.809017 0.415627
v -0.587785 -0.809017 0.000000
v -0.415627 -0.809017 -0.415627
v 0.000000 -0.809017 -0.587785
vn 0.3177 -0.5573 -0.7671
vn 0.3177 0.5573 -0.7671
vn 0.3827 -0.0000 -0.9239
vn 0.9239 -0.0000 -0.3827
vn 0.7671 -0.5573 -0.3177
vn 0.7671 0.5573 -0.3177
vn 0.9239 -0.0000 0.3827
vn 0.7671 -0.5573 0.3177
vn 0.7671 0.5573 0.3177
vn 0.3827 -0.0000 0.9239
vn 0.3177 -0.5573 0.7671
vn 0.3177 0.5573 0.7671
vn -0.3827 -0.0000 0.9239
vn -0.3177 -0.5573 0.7671
vn -0.3177 0.5573 0.7671
vn -0.9239 -0.0000 0.3827
vn -0.7671 -0.5573 0.3177
vn -0.7671 0.5573 0.3177
vn -0.9239 -0.0000 -0.3827
vn -0.7671 -0.5573 -0.3177
vn -0.7671 0.5573 -0.3177
vn -0.3827 -0.0000 -0.9239
vn -0.3177 -0.5573 -0.7671
vn -0.3177 0.5573 -0.7671
vn -0.0000 -1.0000 -0.0000
vn 0.2039 0.9753 -0.0844
vn 0.2039 0.9753 0.0844
vn 0.0844 0.9753 0.2039
vn -0.0844 0.9753 0.2039
vn -0.2039 0.9753 0.0844
vn -0.2039 0.9753 -0.0844
vn -0.0844 0.9753 -0.2039
vn 0.0844 0.9753 -0.2039
vn -0.0000 1.0000 -0.0000
vn 0.1432 -0.9879 -0.0593
vn 0.1432 -0.9879 0.0593
vn 0.0593 -0.9879 0.1432
vn -0.0593 -0.9879 0.1432
vn -0.1432 -0.9879 0.0593
vn -0.1432 -0.9879 -0.0593
vn -0.0593 -0.9879 -0.1432
vn 0.0593 -0.9879 -0.1432
vt 0.750000 0.200000
vt 0.750000 0.400000
vt 0.625000 0.400000
vt 0.625000 0.200000
vt 0.750000 0.600000
vt 0.750000 0.800000
vt 0.625000 0.800000
vt 0.625000 0.600000
vt 0.500000 0.600000
vt 0.500000 0.400000
vt 0.500000 0.200000
vt 0.500000 0.800000
vt 0.375000 0.600000
vt 0.375000 0.400000
vt 0.375000 0.200000
vt 0.375000 0.800000
vt 0.250000 0.600000
vt 0.250000 0.400000
vt 0.250000 0.200000
vt 0.250000 0.800000
vt 0.125000 0.600000
vt 0.125000 0.400000
vt 0.125000 0.200000
vt 0.125000 0.800000
vt 0.000000 0.600000
vt 0.000000 0.400000
vt 0.000000 0.200000
vt 0.000000 0.800000
vt 1.000000 0.400000
vt 1.000000 0.600000
vt 0.875000 0.600000
vt 0.875000 0.400000
vt 1.000000 0.200000
vt 0.875000 0.200000
vt 1.000000 0.800000
vt 0.875000 0.800000
vt 0.541597 0.800000
vt 0.333403 0.800000
vt 0.602368 0.200000
vt 0.522632 0.200000
vt 0.448440 0.200000
vt 0.400148 0.200000
vt 0.457888 0.200000
vt 0.667112 0.200000
vt 0.724852 0.200000
vt 0.676560 0.200000
vt 0.551299 0.800000
vt 0.477287 0.800000
vt 0.397713 0.800000
vt 0.323701 0.800000
vt 0.275652 0.800000
vt 0.599348 0.800000
s 0
usemtl Flask
f 88/1/1 31/2/1 3/3/1 81/4/1
f 30/5/2 40/6/2 34/7/2 2/8/2
f 31/2/3 30/5/3 2/8/3 3/3/3
f 3/3/4 2/8/4 6/9/4 7/10/4
f 81/4/5 3/3/5 7/10/5 82/11/5
f 2/8/6 34/7/6 33/12/6 6/9/6
f 7/10/7 6/9/7 10/13/7 11/14/7
f 82/11/8 7/10/8 11/14/8 83/15/8
f 6/9/9 33/12/9 35/16/9 10/13/9
f 11/14/10 10/13/10 14/17/10 15/18/10
f 83/15/11 11/14/11 15/18/11 84/19/11
f 10/13/12 35/16/12 36/20/12 14/17/12
f 15/18/13 14/17/13 18/21/13 19/22/13
f 84/19/14 15/18/14 19/22/14 85/23/14
f 14/17/15 36/20/15 37/24/15 18/21/15
f 19/22/16 18/21/16 22/25/16 23/26/16
f 85/23/17 19/22/17 23/26/17 86/27/17
f 18/21/18 37/24/18 38/28/18 22/25/18
f 23/29/19 22/30/19 26/31/19 27/32/19
f 86/33/20 23/29/20 27/32/20 87/34/20
f 22/30/21 38/35/21 39/36/21 26/31/21
f 27/32/22 26/31/22 30/5/22 31/2/22
f 87/34/23 27/32/23 31/2/23 88/1/23
f 26/31/24 39/36/24 40/6/24 30/5/24
f 25/37/19 21/38/19 46/38/19 47/37/19
f 4/39/25 8/40/25 12/41/25 16/42/25 20/43/25 24/44/25 28/45/25 32/46/25
f 1/47/26 5/48/26 33/12/26 34/7/26
f 5/48/27 9/49/27 35/16/27 33/12/27
f 9/49/28 13/50/28 36/20/28 35/16/28
f 13/50/29 17/51/29 37/24/29 36/20/29
f 17/51/30 21/38/30 38/28/30 37/24/30
f 21/38/31 25/37/31 39/36/31 38/28/31
f 25/37/32 29/52/32 40/6/32 39/36/32
f 29/52/33 1/47/33 34/7/33 40/6/33
f 50/47/34 49/48/34 65/48/34 66/47/34
f 17/51/13 13/50/13 44/50/13 45/51/13
f 9/49/7 5/48/7 41/48/7 43/49/7
f 29/52/22 25/37/22 47/37/22 48/52/22
f 21/38/16 17/51/16 45/51/16 46/38/16
f 13/50/10 9/49/10 43/49/10 44/50/10
f 5/48/4 1/47/4 42/47/4 41/48/4
f 1/47/3 29/52/3 48/52/3 42/47/3
f 56/52/10 55/37/10 79/37/10 80/52/10
f 43/49/25 41/48/25 57/48/25 59/49/25
f 56/52/34 50/47/34 66/47/34 72/52/34
f 41/48/25 42/47/25 58/47/25 57/48/25
f 55/37/34 56/52/34 72/52/34 71/37/34
f 42/47/25 48/52/25 64/52/25 58/47/25
f 54/38/34 55/37/34 71/37/34 70/38/34
f 48/52/25 47/37/25 63/37/25 64/52/25
f 57/48/4 58/47/4 66/47/4 65/48/4
f 58/47/3 64/52/3 72/52/3 66/47/3
f 63/37/19 62/38/19 70/38/19 71/37/19
f 61/51/13 60/50/13 68/50/13 69/51/13
f 59/49/7 57/48/7 65/48/7 67/49/7
f 64/52/22 63/37/22 71/37/22 72/52/22
f 62/38/16 61/51/16 69/51/16 70/38/16
f 60/50/10 59/49/10 67/49/10 68/50/10
f 44/50/25 43/49/25 59/49/25 60/50/25
f 49/48/34 51/49/34 67/49/34 65/48/34
f 45/51/25 44/50/25 60/50/25 61/51/25
f 51/49/34 52/50/34 68/50/34 67/49/34
f 46/38/25 45/51/25 61/51/25 62/38/25
f 52/50/34 53/51/34 69/51/34 68/50/34
f 47/37/25 46/38/25 62/38/25 63/37/25
f 53/51/34 54/38/34 70/38/34 69/51/34
f 73/48/34 74/47/34 80/52/34 79/37/34 78/38/34 77/51/34 76/50/34 75/49/34
f 54/38/4 53/51/4 77/51/4 78/38/4
f 52/50/22 51/49/22 75/49/22 76/50/22
f 49/48/16 50/47/16 74/47/16 73/48/16
f 50/47/13 56/52/13 80/52/13 74/47/13
f 55/37/7 54/38/7 78/38/7 79/37/7
f 53/51/3 52/50/3 76/50/3 77/51/3
f 51/49/19 49/48/19 73/48/19 75/49/19
f 8/40/35 4/39/35 81/4/35 82/11/35
f 12/41/36 8/40/36 82/11/36 83/15/36
f 16/42/37 12/41/37 83/15/37 84/19/37
f 20/43/38 16/42/38 84/19/38 85/23/38
f 24/44/39 20/43/39 85/23/39 86/33/39
f 28/45/40 24/44/40 86/33/40 87/34/40
f 32/46/41 28/45/41 87/34/41 88/1/41
f 4/39/42 32/46/42 88/1/42 81/4/42
